<svg width="840" height="765" viewBox="0 0 840 765" fill="none" xmlns="http://www.w3.org/2000/svg">
<g clip-path="url(#clip0_5421_3683)">
<path d="M814.931 765C828.448 765 839.475 754.173 839.689 740.663C840.72 673.33 846.146 573.983 719.264 546.517C616.576 524.28 677.469 341.894 400.911 353.673C202.401 362.129 255.126 529.373 100.782 543.29C-1.92525 552.562 -2.81988 682.388 1.12817 741.869C1.9839 754.873 12.7973 764.98 25.8472 764.98H814.931V765Z" fill="#B5DFEA"/>
<path opacity="0.55" d="M719.245 546.498C616.557 524.261 677.45 341.874 400.892 353.654C353.671 355.675 320.687 366.677 295.734 382.441C304.136 381.333 313.063 380.556 322.573 380.167C599.111 368.388 538.238 550.774 640.926 573.011C766.466 600.185 762.498 697.705 761.39 764.98H814.912C828.429 764.98 839.456 754.153 839.67 740.644C840.72 673.311 846.146 573.983 719.245 546.498Z" fill="#90CEDD"/>
<path d="M283.89 0H279.533V318.394H283.89V0Z" fill="#79C9E8"/>
<path d="M596.952 0H592.596V367.3H596.952V0Z" fill="#79C9E8"/>
<path d="M596.544 345.898L271.852 308.014C257.985 306.4 245.421 316.333 243.788 330.192L219.574 537.712C217.96 551.571 227.898 564.128 241.765 565.761L566.458 603.645C580.324 605.259 592.888 595.326 594.522 581.467L618.755 373.967C620.349 360.068 610.431 347.511 596.544 345.898Z" fill="#D7F0F9"/>
<path d="M616.342 394.473L618.734 373.928C620.349 360.068 610.41 347.511 596.544 345.879L271.851 307.994C257.984 306.381 245.42 316.313 243.787 330.173L241.395 350.719L616.342 394.473Z" fill="#0582C1"/>
<path d="M293.944 476.385L335.098 403.901C337.743 399.255 342.896 396.65 348.206 397.253C355.499 398.108 360.731 404.698 359.875 411.987L351.318 485.307L351.687 485.346C356.744 485.929 360.361 490.516 359.778 495.551C359.194 500.604 354.604 504.22 349.567 503.637L349.198 503.598L347.642 516.952C347 522.414 342.06 526.321 336.614 525.679C331.149 525.038 327.24 520.101 327.882 514.658L329.438 501.304L299.798 497.844C294.742 497.261 291.105 492.674 291.708 487.62L292.486 480.894C292.641 479.3 293.147 477.765 293.944 476.385ZM331.675 481.808L336.984 436.343C337.023 436.032 336.595 435.896 336.439 436.168L312.129 479.048C311.701 479.806 312.187 480.758 313.043 480.856L330.333 482.877C330.994 482.955 331.597 482.469 331.675 481.808Z" fill="#79C9E8"/>
<path d="M475.573 497.572L516.726 425.088C519.371 420.442 524.525 417.838 529.835 418.44C537.128 419.296 542.36 425.885 541.504 433.174L532.946 506.494L533.316 506.533C538.373 507.116 541.99 511.704 541.407 516.738C540.823 521.792 536.233 525.407 531.196 524.824L530.827 524.785L529.271 538.139C528.629 543.601 523.689 547.508 518.243 546.867C512.778 546.225 508.869 541.288 509.511 535.846L511.067 522.492L481.427 519.032C476.371 518.449 472.734 513.861 473.337 508.807L474.115 502.082C474.29 500.488 474.795 498.952 475.573 497.572ZM513.323 502.995L518.632 457.53C518.671 457.219 518.243 457.083 518.088 457.355L493.777 500.235C493.349 500.993 493.836 501.946 494.691 502.043L511.981 504.065C512.642 504.142 513.245 503.656 513.323 502.995Z" fill="#79C9E8"/>
<path d="M393.929 433.738C396.321 413.25 408.477 402.812 428.256 405.106C448.015 407.419 457.448 420.384 455.056 440.852L447.276 507.427C444.884 527.915 432.729 538.353 412.95 536.059C393.19 533.746 383.758 520.781 386.15 500.313L393.929 433.738ZM406.123 503.948C405.054 513.084 408.671 517.03 415.089 517.788C421.488 518.526 425.922 515.533 426.992 506.378L435.063 437.237C436.132 428.101 432.515 424.155 426.097 423.397C419.698 422.658 415.264 425.652 414.194 434.807L406.123 503.948Z" fill="#79C9E8"/>
<path d="M279.689 336.685C279.261 340.417 275.877 343.08 272.143 342.652C268.409 342.224 265.744 338.842 266.172 335.11C266.6 331.378 269.984 328.715 273.718 329.143C277.452 329.59 280.117 332.972 279.689 336.685Z" fill="white"/>
<path d="M312.245 340.494C311.818 344.226 308.433 346.889 304.699 346.462C300.965 346.034 298.301 342.652 298.729 338.92C299.157 335.188 302.541 332.525 306.275 332.952C310.009 333.38 312.693 336.762 312.245 340.494Z" fill="#79C9E8"/>
<path d="M346.009 344.421C345.581 348.153 342.197 350.816 338.463 350.388C334.729 349.961 332.064 346.579 332.492 342.847C332.92 339.114 336.304 336.451 340.038 336.879C343.772 337.326 346.437 340.708 346.009 344.421Z" fill="#FFBF4D"/>
<path d="M215.392 580.787C215.392 580.787 210.997 600.225 211.736 620.09C212.397 637.876 210.277 754.815 210.277 754.815H224.572C224.572 754.815 244.915 663.223 245.674 655.992C246.432 648.761 256.662 576.433 256.662 576.433L215.392 580.787Z" fill="#00668E"/>
<path d="M224.902 575.46C224.902 575.46 228.189 600.438 233.79 618.204C239.391 635.951 266.872 754.833 266.872 754.833H281.167C281.167 754.833 278.541 663.242 277.549 656.011C276.558 648.78 269.323 576.451 269.323 576.451L224.902 575.46Z" fill="#0582C1"/>
<path d="M268.02 754.795V764.767H295.228C296.764 764.767 297.387 762.764 296.084 761.909C292.097 759.266 285.737 755.611 279.805 754.795H268.02Z" fill="#0582C1"/>
<path d="M210.998 754.795V764.767H238.207C239.743 764.767 240.365 762.764 239.062 761.909C235.075 759.266 228.716 755.611 222.784 754.795H210.998Z" fill="#0582C1"/>
<path d="M260.086 459.241C260.086 459.241 269.441 445.031 258.705 443.651C250.459 442.582 247.056 445.051 247.056 445.051C247.056 445.051 237.565 444.001 232.353 448.511C228.794 451.601 215.724 475.53 236.865 484.179C258.005 492.829 253.493 470.67 253.493 470.67L260.086 459.241Z" fill="#00668E"/>
<path d="M258.705 443.651C250.459 442.582 247.056 445.051 247.056 445.051C247.056 445.051 237.565 444.001 232.353 448.511C228.794 451.601 215.724 475.53 236.865 484.179C246.803 488.242 251.062 485.501 252.813 481.458C232.761 487.095 230.583 462.934 233.889 456.072C237.254 449.094 245.305 452.301 245.305 452.301C248.456 444.371 258.744 445.226 262.984 445.848C262.206 444.74 260.864 443.923 258.705 443.651Z" fill="#05556D"/>
<path d="M246.92 466.16C246.92 466.16 244.139 463.38 242.078 466.16C239.997 468.94 241.377 475.16 244.859 475.51C244.859 475.51 243.828 484.509 236.885 484.16V491.429H253.163V485.89C253.163 485.89 263.218 481.73 262.868 473.43C262.518 465.11 260.087 459.221 260.087 459.221C260.087 459.221 254.544 465.46 246.92 466.16Z" fill="#F98D3D"/>
<path d="M249.408 488.222C251.022 488.903 250.731 489.913 250.808 491.429H253.142V485.89C253.142 485.89 249.194 487.134 243.418 483.849C243.437 483.868 246.802 487.134 249.408 488.222Z" fill="#ED701B"/>
<path d="M252.753 452.904C252.753 452.904 244.312 449.541 243.32 452.068C242.679 453.72 244.312 455.139 246.568 456.577L244.585 456.908C244.137 456.986 243.982 457.549 244.332 457.822C244.876 458.269 246.413 458.56 249.602 458.677L252.753 452.904Z" fill="#F98D3D"/>
<path d="M313.024 474.033C296.921 462.117 252.967 452.573 252.967 452.573L249.35 459.163C249.35 459.163 289.258 474.616 286.632 476.929C285.077 478.29 265.589 487.212 258.977 490.225C257.557 490.866 256.021 491.177 254.445 491.158L234.238 491.041C234.238 491.041 219.652 489.311 208.197 502.47C197.947 514.269 180.521 541.58 180.521 541.58L209.889 584.732L213.137 589.494L213.156 589.436L213.137 589.844C213.137 589.844 214.187 589.961 216.034 590.136C225.467 591.01 255.729 593.401 271.735 590L272.182 589.902L271.424 519.109C296.979 498.894 309.193 483.266 313.549 478.367C314.638 477.065 314.424 475.082 313.024 474.033ZM214.517 570.581L211.659 564.322L202.537 544.398L217.668 527.448L214.945 564.633L214.517 570.581Z" fill="#FFBF4D"/>
<path d="M211.639 564.322L214.517 570.581L213.117 589.456L213.098 589.514L209.85 584.752L211.639 564.322Z" fill="#EFAA3A"/>
<path opacity="0.29" d="M264.539 516.583C261.817 518.566 262.517 536.06 261.836 547.003C260.708 565.333 259.619 581.195 260.416 591.419C264.559 591.147 268.41 590.7 271.677 590L272.124 589.903L271.366 519.11C296.921 498.894 309.135 483.266 313.491 478.368C314.639 477.066 314.425 475.083 313.024 474.033C313.024 474.033 292.817 496.056 264.539 516.583Z" fill="#F98D2B"/>
<path d="M277.531 656.011C276.811 650.801 272.844 611.692 270.704 590.311L260.436 591.438C260.436 591.438 275.411 714.538 276.403 754.833H281.148C281.148 754.814 278.523 663.242 277.531 656.011Z" fill="#00668E"/>
<path d="M211.678 468.182L208.586 462.642C210.142 459.727 211.017 456.383 211.017 452.846C211.017 441.28 201.623 431.892 190.051 431.892C178.48 431.892 169.086 441.28 169.086 452.846C169.086 464.411 178.48 473.8 190.051 473.8C195.886 473.8 201.156 471.409 204.949 467.58L211.678 468.182Z" fill="#0582C1"/>
<path d="M179.141 450.94H179.957V453.856C179.957 454.75 180.23 455.139 180.852 455.139C181.338 455.139 181.688 454.886 182.136 454.342V450.94H182.933V455.722H182.272L182.194 454.984H182.155C181.708 455.508 181.241 455.858 180.58 455.858C179.568 455.858 179.121 455.217 179.121 453.992V450.94H179.141Z" fill="white"/>
<path d="M186.356 456.111V457.725H185.539V450.921H186.2L186.259 451.466H186.298C186.725 451.096 187.27 450.805 187.815 450.805C189.04 450.805 189.701 451.757 189.701 453.234C189.701 454.848 188.729 455.82 187.64 455.82C187.192 455.82 186.745 455.606 186.317 455.275L186.356 456.111ZM187.523 455.159C188.301 455.159 188.884 454.44 188.884 453.254C188.884 452.204 188.534 451.485 187.62 451.485C187.212 451.485 186.803 451.718 186.336 452.126V454.634C186.784 455.023 187.212 455.159 187.523 455.159Z" fill="white"/>
<path d="M191.86 454.634C192.268 454.964 192.696 455.198 193.26 455.198C193.882 455.198 194.213 454.867 194.213 454.459C194.213 453.973 193.649 453.759 193.124 453.545C192.443 453.293 191.704 452.982 191.704 452.165C191.704 451.388 192.307 450.805 193.357 450.805C193.96 450.805 194.485 451.057 194.835 451.349L194.446 451.854C194.116 451.602 193.785 451.427 193.357 451.427C192.754 451.427 192.482 451.757 192.482 452.107C192.482 452.554 193.007 452.729 193.552 452.943C194.232 453.196 195.01 453.487 195.01 454.381C195.01 455.159 194.388 455.8 193.26 455.8C192.579 455.8 191.937 455.509 191.471 455.139L191.86 454.634Z" fill="white"/>
<path d="M197.519 454.595C197.83 454.595 198.102 454.847 198.102 455.217C198.102 455.567 197.83 455.819 197.519 455.819C197.188 455.819 196.936 455.567 196.936 455.217C196.936 454.847 197.188 454.595 197.519 454.595Z" fill="white"/>
<path d="M200.943 454.595C201.254 454.595 201.526 454.847 201.526 455.217C201.526 455.567 201.254 455.819 200.943 455.819C200.612 455.819 200.359 455.567 200.359 455.217C200.359 454.847 200.632 454.595 200.943 454.595Z" fill="white"/>
<path d="M131.278 720.157C131.278 720.157 126.883 716.036 129.839 700.447C132.795 684.857 140.302 669.871 136.607 652.96C132.931 636.029 104.07 593.382 103.992 590.544C103.895 587.706 95.0845 640.169 110.002 660.851C124.919 681.514 126.708 688.687 126.047 699.552C125.385 710.418 126.202 719.185 127.836 721.712L131.278 720.157Z" fill="#79C9E8"/>
<path d="M128.556 688.803C126.825 695.762 125.774 713.197 128.536 717.377C128.789 717.765 129.158 717.552 129.625 716.832C128.789 713.956 128.225 708.902 129.82 700.466C132.776 684.876 140.283 669.89 136.588 652.979C132.912 636.048 104.05 593.401 103.973 590.563C103.973 590.563 108.329 626.115 122.954 650.568C133.457 668.063 130.286 681.844 128.556 688.803Z" fill="#49B4D6"/>
<path d="M136.549 719.088C136.549 719.088 128.069 697.939 142.442 679.629C156.814 661.318 179.783 637.798 180.23 628.487C180.23 628.487 186.142 672.709 167.433 685.227C148.743 697.745 135.635 699.747 138.863 719.01L136.549 719.088Z" fill="#79C9E8"/>
<path d="M156.717 676.344C135.868 691.505 134.157 708.98 137.405 717.086C137.658 717.708 138.124 718.096 138.766 718.31C135.966 699.728 148.977 697.609 167.433 685.246C186.123 672.728 180.23 628.507 180.23 628.507C180.23 628.507 177.566 661.163 156.717 676.344Z" fill="#49B4D6"/>
<path d="M122.603 719.554C122.603 719.554 125.326 708.358 123.868 696.267C122.428 684.177 109.787 677.373 97.9816 664.603C91.9137 658.033 90.105 623.297 93.878 620.07C93.878 620.07 73.0292 645.32 76.2576 663.806C79.4666 682.291 113.482 694.304 116.633 703.245C119.783 712.187 119.511 719.67 119.511 719.67L122.603 719.554Z" fill="#79C9E8"/>
<path d="M86.8381 630.003C79.9533 648.644 87.0131 671.231 109.904 685.266C126.746 695.587 121.379 717.066 121.379 717.066L124.14 708.591C124.393 704.937 124.413 700.66 123.887 696.267C122.448 684.177 109.807 677.374 98.0015 664.603C92.1475 658.266 90.261 625.727 93.5089 620.537C92.556 621.742 89.8526 625.241 86.8381 630.003Z" fill="#49B4D6"/>
<path d="M93.5098 620.537C93.7431 620.245 93.8793 620.07 93.8793 620.07C93.7431 620.187 93.6265 620.342 93.5098 620.537Z" fill="#49B4D6"/>
<path d="M140.904 718.154C140.904 718.154 145.786 700.038 157.883 697.589C169.96 695.159 183.847 677.296 184.586 673.797C184.586 673.816 182.544 707.463 140.904 718.154Z" fill="#79C9E8"/>
<path d="M157.183 703.595C149.773 707.289 146.7 712.265 145.611 716.794C182.68 704.878 184.586 673.816 184.586 673.816C184.431 674.516 183.769 675.78 182.7 677.354C179.063 683.73 170.253 697.064 157.183 703.595Z" fill="#49B4D6"/>
<path d="M167.044 711.487H103.855L111.363 758.663C111.927 762.24 115.019 764.883 118.636 764.883H152.263C155.88 764.883 158.973 762.259 159.537 758.663L167.044 711.487Z" fill="#FFBF4D"/>
<path d="M165.818 719.301L167.044 711.487H103.855L105.1 719.301H165.818Z" fill="#FF9F50"/>
<path d="M151.738 711.487L144.231 758.663C143.667 762.24 140.574 764.883 136.957 764.883H152.263C155.88 764.883 158.973 762.259 159.537 758.663L167.044 711.487H151.738Z" fill="#FF9F50"/>
<path d="M602.943 627.359H317.322V685.401H602.943V627.359Z" fill="#FFBF4D"/>
<path opacity="0.29" d="M602.943 627.359H317.322V641.452H602.943V627.359Z" fill="#F98D2B"/>
<path d="M342.158 627.359H368.219L361.237 641.452H335.156L342.158 627.359Z" fill="#F77E2D"/>
<path d="M400.892 627.359H426.953L419.971 641.452H393.91L400.892 627.359Z" fill="#F77E2D"/>
<path d="M459.627 627.359H485.688L478.706 641.452H452.645L459.627 627.359Z" fill="#F77E2D"/>
<path d="M518.361 627.359H544.402L537.42 641.452H511.359L518.361 627.359Z" fill="#F77E2D"/>
<path d="M602.942 627.359V627.748L596.135 641.452H570.094L577.095 627.359H602.942Z" fill="#F77E2D"/>
<path d="M373.004 685.401H352.875V764.767H373.004V685.401Z" fill="#79C9E8"/>
<path d="M373.004 685.401H368.434V764.767H373.004V685.401Z" fill="#49B4D6"/>
<path d="M568.948 685.401H548.818V764.767H568.948V685.401Z" fill="#79C9E8"/>
<path d="M568.947 685.401H562.996V764.767H568.947V685.401Z" fill="#49B4D6"/>
<path d="M373.004 685.343H352.875V695.334H373.004V685.343Z" fill="#49B4D6"/>
<path d="M568.948 685.343H548.818V695.334H568.948V685.343Z" fill="#49B4D6"/>
<path d="M373.004 618.282H352.875V627.301H373.004V618.282Z" fill="#79C9E8"/>
<path d="M373.004 618.282H368.434V627.301H373.004V618.282Z" fill="#49B4D6"/>
<path d="M568.948 618.282H548.818V627.301H568.948V618.282Z" fill="#79C9E8"/>
<path d="M568.947 618.282H562.996V627.301H568.947V618.282Z" fill="#49B4D6"/>
<path d="M373.004 626.174H352.875V627.301H373.004V626.174Z" fill="#49B4D6"/>
<path d="M568.948 626.174H548.818V627.301H568.948V626.174Z" fill="#49B4D6"/>
<path d="M368.219 627.359L339.416 685.401H317.322V677.393L342.158 627.359H368.219Z" fill="#0582C1"/>
<path d="M400.893 627.359L372.09 685.401H398.151L426.954 627.359H400.893Z" fill="#0582C1"/>
<path d="M485.688 627.359L456.885 685.401H430.824L459.627 627.359H485.688Z" fill="#0582C1"/>
<path d="M544.403 627.359L515.62 685.401H489.559L518.362 627.359H544.403Z" fill="#0582C1"/>
<path d="M577.096 627.359L548.293 685.401H574.334L602.943 627.748L577.096 627.359Z" fill="#0582C1"/>
<path d="M368.219 627.359L361.237 641.452H335.156L342.158 627.359H368.219Z" fill="#00668E"/>
<path d="M426.953 627.359L419.971 641.452H393.91L400.892 627.359H426.953Z" fill="#00668E"/>
<path d="M485.688 627.359L478.706 641.452H452.645L459.627 627.359H485.688Z" fill="#00668E"/>
<path d="M544.402 627.359L537.42 641.452H511.359L518.361 627.359H544.402Z" fill="#00668E"/>
<path d="M602.942 627.748L596.135 641.452H570.094L577.095 627.359L602.942 627.748Z" fill="#00668E"/>
<path opacity="0.55" d="M598.023 652.474H325.277V681.514H598.023V652.474Z" fill="url(#paint0_linear_5421_3683)"/>
<path d="M365.274 623.402C375.06 621.81 381.701 612.592 380.109 602.812C378.517 593.033 369.294 586.394 359.509 587.986C349.723 589.577 343.082 598.795 344.674 608.575C346.266 618.355 355.489 624.993 365.274 623.402Z" fill="#FFBF4D"/>
<path d="M370.552 605.687C370.552 601.196 366.915 597.562 362.422 597.562C357.93 597.562 354.293 601.196 354.293 605.687C354.293 610.177 357.93 613.812 362.422 613.812C366.915 613.831 370.552 610.177 370.552 605.687Z" fill="#0582C1"/>
<path d="M561.624 623.411C571.409 621.819 578.051 612.601 576.459 602.821C574.867 593.041 565.643 586.403 555.858 587.995C546.073 589.586 539.431 598.804 541.024 608.584C542.616 618.364 551.839 625.002 561.624 623.411Z" fill="#FFBF4D"/>
<path d="M566.905 605.687C566.905 601.196 563.269 597.562 558.776 597.562C554.283 597.562 550.646 601.196 550.646 605.687C550.646 610.177 554.283 613.812 558.776 613.812C563.269 613.831 566.905 610.177 566.905 605.687Z" fill="#0582C1"/>
<path d="M711.154 758.605H620.193L634.099 724.9V724.88L639.7 711.274L641.237 707.542L643.745 701.477L644.251 700.233L649.852 686.627L650.883 684.158L660.802 660.094C662.591 655.759 668.737 655.759 670.526 660.094L680.445 684.158L681.476 686.627L687.077 700.233L687.582 701.477L690.091 707.542L691.628 711.274L697.229 724.88V724.9L711.154 758.605Z" fill="#FFBF4D"/>
<path opacity="0.29" d="M626.164 744.163L620.193 758.605H711.173L705.203 744.163H626.164Z" fill="#F98D2B"/>
<path d="M717.106 749.975H612.92V764.689H717.106V749.975Z" fill="#79C9E8"/>
<path d="M717.105 749.975H694.604V764.689H717.105V749.975Z" fill="#49B4D6"/>
<path opacity="0.29" d="M707.576 749.975H694.701L684.374 724.919V724.9L678.772 711.293L677.236 707.561L674.727 701.497L674.221 700.253L668.62 686.646L667.59 684.177L659.246 663.923L660.802 660.113C662.591 655.779 668.737 655.779 670.526 660.113L680.445 684.177L681.476 686.646L687.077 700.253L687.583 701.497L690.091 707.561L691.628 711.293L697.229 724.9V724.919L707.576 749.975Z" fill="#F98D2B"/>
<path d="M687.078 700.253H644.271L649.873 686.646H681.476L687.078 700.253Z" fill="#0582C1"/>
<path d="M697.249 724.881V724.9H634.1V724.881L639.701 711.274H691.648L697.249 724.881Z" fill="#0582C1"/>
<path d="M687.078 700.253H674.222L668.621 686.646H681.477L687.078 700.253Z" fill="#00668E"/>
<path d="M697.25 724.881V724.9H684.375V724.881L678.773 711.274H691.648L697.25 724.881Z" fill="#00668E"/>
<path d="M131.316 428.043C138.104 428.043 144.016 423.106 144.95 416.38C145.105 415.175 145.203 413.931 145.203 412.687C145.203 397.7 133.047 385.551 118.052 385.551C117.43 385.551 116.827 385.571 116.224 385.629C114.98 370.856 102.591 359.252 87.4988 359.252C71.5705 359.252 58.6567 372.159 58.6567 388.078C58.6567 388.778 58.6956 389.478 58.7345 390.178C54.2225 387.651 48.9519 386.31 43.3507 386.562C28.8616 387.223 16.9591 398.808 15.9284 413.27C15.9284 413.387 15.9089 413.503 15.9089 413.62C15.4422 421.473 21.8018 428.082 29.6785 428.082H131.316V428.043Z" fill="#D7F0F9"/>
<path d="M779.205 449.347C800.676 449.347 801.862 417.06 780.41 416.011C779.827 415.991 779.244 415.972 778.641 415.972C774.809 415.972 771.134 416.574 767.672 417.682C764.793 400.207 749.624 386.873 731.322 386.873C712.613 386.873 697.19 400.81 694.818 418.848C690.383 416.73 685.405 415.525 680.153 415.525C677.217 415.525 674.377 415.894 671.655 416.594C652.887 421.434 656.815 449.347 676.205 449.347H779.205Z" fill="#D7F0F9"/>
<path d="M521.396 290.247C542.847 290.247 544.053 257.961 522.602 256.93C522.018 256.911 521.435 256.892 520.832 256.892C517 256.892 513.325 257.494 509.863 258.602C506.984 241.127 491.815 227.793 473.533 227.793C454.843 227.793 439.401 241.73 437.028 259.768C432.594 257.65 427.615 256.444 422.383 256.444C419.447 256.444 416.607 256.814 413.884 257.514C395.117 262.334 399.065 290.247 418.435 290.247H521.396Z" fill="#D7F0F9"/>
<path d="M179.705 349.902C208.115 349.902 231.146 326.883 231.146 298.489C231.146 270.094 208.115 247.075 179.705 247.075C151.295 247.075 128.264 270.094 128.264 298.489C128.264 326.883 151.295 349.902 179.705 349.902Z" fill="#FFBF4D"/>
<path d="M180.132 247.075C194.116 256.269 203.373 272.092 203.373 290.072C203.373 318.471 180.346 341.485 151.932 341.485C151.796 341.485 151.659 341.485 151.504 341.466C159.614 346.792 169.299 349.902 179.724 349.902C208.138 349.902 231.165 326.887 231.165 298.489C231.165 270.245 208.352 247.308 180.132 247.075Z" fill="#FF9F50"/>
</g>
<defs>
<linearGradient id="paint0_linear_5421_3683" x1="461.654" y1="702.376" x2="461.654" y2="655.619" gradientUnits="userSpaceOnUse">
<stop stop-color="white"/>
<stop offset="1" stop-color="white" stop-opacity="0"/>
</linearGradient>
<clipPath id="clip0_5421_3683">
<rect width="840" height="765" fill="white"/>
</clipPath>
</defs>
</svg>
