<svg width="22" height="22" viewBox="0 0 22 22" fill="none" xmlns="http://www.w3.org/2000/svg">
<path d="M15.2075 6.94825L9.16667 12.9891L5.87584 9.70742L4.58334 10.9999L9.16667 15.5833L16.5 8.24992L15.2075 6.94825ZM11 1.83325C5.94 1.83325 1.83334 5.93992 1.83334 10.9999C1.83334 16.0599 5.94 20.1666 11 20.1666C16.06 20.1666 20.1667 16.0599 20.1667 10.9999C20.1667 5.93992 16.06 1.83325 11 1.83325ZM11 18.3333C6.94834 18.3333 3.66667 15.0516 3.66667 10.9999C3.66667 6.94825 6.94834 3.66659 11 3.66659C15.0517 3.66659 18.3333 6.94825 18.3333 10.9999C18.3333 15.0516 15.0517 18.3333 11 18.3333Z" fill="white"/>
</svg>
